<svg xmlns="http://www.w3.org/2000/svg" xmlns:xlink="http://www.w3.org/1999/xlink" xmlns:fi="http://pattern.flaticon.com/" x="0" y="0" width="700" height="350" viewBox="0 0 700 350"><rect x="0px" y="0px" width="100%" height="100%" opacity="1" fill="#f8f8f8"/><defs><g transform="matrix(0.21505813192129586 -0.11043525359616982 0.11043525359616982 0.21505813192129586 304.43092543150834 335.3527964384359)" id="L1_42"><path d="M240,120c0,0-44.772,30-100,30S40,120,40,120c0-55.229,44.771-70,100-70   S240,64.771,240,120z" id="XMLID_961_" fill="#802812"/><path d="M180,40 180,20 140,20 140,0 100,0 100,40 60,40 60,220 100,220 100,180    140,180 140,200 180,200 180,220 220,220 220,40z" id="XMLID_962_" fill="#ffda44"/><rect x="60px" y="40px" width="40px" height="180px" id="XMLID_963_" fill="#ffad41"/><rect x="100px" y="0px" width="40px" height="180px" id="XMLID_964_" fill="#ffda44"/><rect x="140px" y="20px" width="40px" height="180px" id="XMLID_965_" fill="#ffe98f"/><rect x="180px" y="40px" width="40px" height="180px" id="XMLID_966_" fill="#ffda44"/><g id="XMLID_967_"><path d="M203.255,120c-11.235,23.648-35.332,40-63.255,40s-52.02-16.352-63.255-40H40    l20,160h160l20-160H203.255z" id="XMLID_968_" fill="#ff5023"/><path d="M140,160c-27.923,0-52.02-16.352-63.255-40H40l20,160h80    C140,280,140,199.333,140,160z" id="XMLID_969_" fill="#bd3c1a"/></g><ellipse cx="140px" cy="220px" rx="40px" ry="20px" id="XMLID_970_" fill="#ffffff"/><path d="M140,240c-22.091,0-40-8.954-40-20s17.909-20,40-20" id="XMLID_971_" fill="#ffe98f"/></g><g transform="matrix(0.1071428582072258 0 0 0.1071428582072258 335 160)" id="L1_43"><path d="M226.721,1.365c0,0,7.682,43.532-17.07,68.285   c-24.754,24.752-68.285,17.071-68.285,17.071s-8.535-42.678,17.072-68.284C184.043-7.17,226.721,1.365,226.721,1.365z" id="XMLID_19_" fill="#91dc5a"/><path d="M155,75c0,8.284-6.716,15-15,15l0,0c-8.284,0-15-6.716-15-15V25   c0-8.284,6.716-15,15-15l0,0c8.284,0,15,6.716,15,15V75z" id="XMLID_1283_" fill="#804c09"/><ellipse cx="180px" cy="170px" rx="90px" ry="110px" id="XMLID_1284_" fill="#ff9811"/><ellipse cx="100px" cy="170px" rx="90px" ry="110px" id="XMLID_1285_" fill="#ffad41"/><path d="M140,71.444C127.95,64.123,114.37,60,100,60c-49.706,0-90,49.248-90,110   s40.294,110,90,110c14.37,0,27.95-4.123,40-11.443V71.444z" id="XMLID_1286_" fill="#ff9811"/></g><g transform="matrix(0.1695520467806075 0.09325362256871851 -0.09325362256871851 0.1695520467806075 161.26628423790643 127.69498011316776)" id="L1_44"><path d="M86.75,136.141C111.455,130.74,130,108.825,130,82.5c-20,0-55,0-55,0s0-15,0-55   c-30.376,0-55,24.624-55,55c0,17.398,7.394,28.953,20.697,42.977C54,139.5,116.36,201.14,116.36,201.14l12.678-22.678   C129.038,178.462,88.023,137.414,86.75,136.141z" id="XMLID_1164_" fill="#ff5023"/><path d="M25,227.5H0c0-24.814,20.186-45,45-45h65v25H45C33.972,207.5,25,216.472,25,227.5z   " id="XMLID_1165_" fill="#ff5023"/><path d="M25,287.5H0c0-24.814,20.186-45,45-45h65v25H45C33.972,267.5,25,276.472,25,287.5z   " id="XMLID_1166_" fill="#ff5023"/><path d="M65,332.5H40c0-24.814,20.186-45,45-45h95v25H85C73.972,312.5,65,321.472,65,332.5   z" id="XMLID_1167_" fill="#ff5023"/><ellipse cx="180px" cy="227px" rx="120px" ry="90px" id="XMLID_1168_" fill="#ff5023"/><path d="M180,317.5c-66.274,0-120-40.295-120-90s53.726-90,120-90" id="XMLID_1169_" fill="#bd3c1a"/><circle cx="135" cy="142" r="15" id="XMLID_1171_"/><circle cx="225" cy="142" r="15" id="XMLID_1173_"/><path d="M335,227.5h25c0-24.814-20.187-45-45-45h-65v25h65    C326.028,207.5,335,216.472,335,227.5z" id="XMLID_1175_" fill="#ff5023"/><path d="M335,287.5h25c0-24.814-20.187-45-45-45h-65v25h65    C326.028,267.5,335,276.472,335,287.5z" id="XMLID_1177_" fill="#ff5023"/><path d="M295,332.5h25c0-24.814-20.187-45-45-45h-95v25h95    C286.028,312.5,295,321.472,295,332.5z" id="XMLID_1179_" fill="#ff5023"/><path d="M273.25,136.141C248.545,130.74,230,108.825,230,82.5c20,0,55,0,55,0s0-15,0-55   c30.375,0,55,24.624,55,55c0,17.398-7.395,28.953-20.697,42.977C306,139.5,243.64,201.14,243.64,201.14l-12.678-22.678   C230.962,178.462,271.977,137.414,273.25,136.141z" id="XMLID_1180_" fill="#ff5023"/></g><path d="M165,0C74.019,0,0,74.019,0,165s74.019,165,165,165c90.982,0,165-74.019,165-165S255.982,0,165,0z" transform="matrix(0.03030303120613098 0 0 0.03030303120613098 257.5 257.5)" id="L1_45" fill="#fae1bc"/><g transform="matrix(0.13598227500915527 0 0 0.13598227500915527 150 325)" id="L1_46"><path d="M338.181,183.181H29.514L0,212.695c101.536,101.537,266.159,101.536,367.695,0   C358.625,203.625,348.647,193.647,338.181,183.181z" id="XMLID_898_" fill="#ffad41"/><path d="M183.848,288.848c-66.54,0-133.08-25.384-183.848-76.152L183.848,28.848   C183.848,28.848,183.848,194.848,183.848,288.848z" id="XMLID_23_" fill="#ff9811"/><path d="M316.077,161.077H51.619l-23.335,23.335   c39.813,39.812,94.813,64.436,155.564,64.436s115.751-24.624,155.563-64.436C331.849,176.849,316.077,161.077,316.077,161.077z" id="XMLID_899_" fill="#ff5023"/><path d="M183.848,161.077H51.619l-23.335,23.335   c39.813,39.812,94.813,64.436,155.564,64.436C183.848,248.848,183.848,161.077,183.848,161.077z" id="XMLID_900_" fill="#bd3c1a"/><path d="M183.848,28.848L51.619,161.077c16.58,16.58,44.01,18.524,66.011,27.647   c21.223,8.8,41.813,27.124,66.218,27.124s44.996-18.324,66.218-27.124c22.001-9.123,49.431-11.067,66.011-27.647   C253.44,98.44,183.848,28.848,183.848,28.848z" id="XMLID_901_" fill="#ffe98f"/><path d="M51.619,161.077c3.616,3.616,7.75,6.536,12.229,8.986v98.785   c0,11.046,8.955,20,20,20s20-8.954,20-20v-50c0-11.046,8.955-20,20-20s20,8.954,20,20v100c0,11.046,8.955,20,20,20s20-8.954,20-20   v-290L51.619,161.077z" id="XMLID_902_" fill="#ffda44"/><circle cx="128" cy="143" r="25" id="XMLID_903_" fill="#bd3c1a"/><circle cx="238" cy="143" r="25" id="XMLID_904_" fill="#ff5023"/><circle cx="183" cy="93" r="25" id="XMLID_905_" fill="#ff5023"/><path d="M183.848,118.848c-13.807,0-25-11.193-25-25s11.193-25,25-25" id="XMLID_906_" fill="#bd3c1a"/></g></defs><g fi:class="KUsePattern" opacity="0.2"><pattern id="pattern_L1_42" width="350" height="350" patternUnits="userSpaceOnUse"><use xlink:href="#L1_42" x="-350" y="-350"/><use xlink:href="#L1_42" x="0" y="-350"/><use xlink:href="#L1_42" x="350" y="-350"/><use xlink:href="#L1_42" x="-350" y="0"/><use xlink:href="#L1_42" x="0" y="0"/><use xlink:href="#L1_42" x="350" y="0"/><use xlink:href="#L1_42" x="-350" y="350"/><use xlink:href="#L1_42" x="0" y="350"/><use xlink:href="#L1_42" x="350" y="350"/></pattern><rect x="0" y="0" width="100%" height="100%" fill="url(#pattern_L1_42)"/></g><g fi:class="KUsePattern" opacity="0.2"><pattern id="pattern_L1_43" width="350" height="350" patternUnits="userSpaceOnUse"><use xlink:href="#L1_43" x="-350" y="-350"/><use xlink:href="#L1_43" x="0" y="-350"/><use xlink:href="#L1_43" x="350" y="-350"/><use xlink:href="#L1_43" x="-350" y="0"/><use xlink:href="#L1_43" x="0" y="0"/><use xlink:href="#L1_43" x="350" y="0"/><use xlink:href="#L1_43" x="-350" y="350"/><use xlink:href="#L1_43" x="0" y="350"/><use xlink:href="#L1_43" x="350" y="350"/></pattern><rect x="0" y="0" width="100%" height="100%" fill="url(#pattern_L1_43)"/></g><g fi:class="KUsePattern" opacity="0.2"><pattern id="pattern_L1_44" width="350" height="350" patternUnits="userSpaceOnUse"><use xlink:href="#L1_44" x="-350" y="-350"/><use xlink:href="#L1_44" x="0" y="-350"/><use xlink:href="#L1_44" x="350" y="-350"/><use xlink:href="#L1_44" x="-350" y="0"/><use xlink:href="#L1_44" x="0" y="0"/><use xlink:href="#L1_44" x="350" y="0"/><use xlink:href="#L1_44" x="-350" y="350"/><use xlink:href="#L1_44" x="0" y="350"/><use xlink:href="#L1_44" x="350" y="350"/></pattern><rect x="0" y="0" width="100%" height="100%" fill="url(#pattern_L1_44)"/></g><g fi:class="KUsePattern" opacity="0.2"><pattern id="pattern_L1_45" width="350" height="350" patternUnits="userSpaceOnUse"><use xlink:href="#L1_45" x="-350" y="-350"/><use xlink:href="#L1_45" x="0" y="-350"/><use xlink:href="#L1_45" x="350" y="-350"/><use xlink:href="#L1_45" x="-350" y="0"/><use xlink:href="#L1_45" x="0" y="0"/><use xlink:href="#L1_45" x="350" y="0"/><use xlink:href="#L1_45" x="-350" y="350"/><use xlink:href="#L1_45" x="0" y="350"/><use xlink:href="#L1_45" x="350" y="350"/></pattern><rect x="0" y="0" width="100%" height="100%" fill="url(#pattern_L1_45)"/></g><g fi:class="KUsePattern" opacity="0.2"><pattern id="pattern_L1_46" width="350" height="350" patternUnits="userSpaceOnUse"><use xlink:href="#L1_46" x="-350" y="-350"/><use xlink:href="#L1_46" x="0" y="-350"/><use xlink:href="#L1_46" x="350" y="-350"/><use xlink:href="#L1_46" x="-350" y="0"/><use xlink:href="#L1_46" x="0" y="0"/><use xlink:href="#L1_46" x="350" y="0"/><use xlink:href="#L1_46" x="-350" y="350"/><use xlink:href="#L1_46" x="0" y="350"/><use xlink:href="#L1_46" x="350" y="350"/></pattern><rect x="0" y="0" width="100%" height="100%" fill="url(#pattern_L1_46)"/></g></svg>